<mxfile host="app.diagrams.net" agent="Mozilla/5.0 (Windows NT 10.0; Win64; x64) AppleWebKit/537.36 (KHTML, like Gecko) Chrome/135.0.0.0 Safari/537.36" version="27.0.2">
  <diagram name="Страница — 1" id="_x3-v-AXs8-hNVyE58mh">
    <mxGraphModel dx="1678" dy="914" grid="1" gridSize="10" guides="1" tooltips="1" connect="1" arrows="1" fold="1" page="1" pageScale="1" pageWidth="827" pageHeight="1169" math="0" shadow="0">
      <root>
        <mxCell id="0" />
        <mxCell id="1" parent="0" />
        <mxCell id="rYsyQF8CnUFIwroDZ9Fq-7" value="&lt;h2 style=&quot;padding-bottom: 650px; padding-left: 0px;&quot;&gt;&lt;font style=&quot;color: light-dark(rgb(50, 119, 118), rgb(237, 237, 237));&quot;&gt;Список заказов&lt;/font&gt;&lt;/h2&gt;" style="rounded=0;whiteSpace=wrap;html=1;fillColor=#b0e3e6;strokeColor=#0e8088;fontColor=#9FCDD0;labelBorderColor=none;strokeWidth=3;" vertex="1" parent="1">
          <mxGeometry x="50" y="60" width="290" height="750" as="geometry" />
        </mxCell>
        <mxCell id="rYsyQF8CnUFIwroDZ9Fq-8" value="&lt;h2 style=&quot;padding-bottom: 650px;&quot;&gt;&lt;font style=&quot;color: light-dark(rgb(150, 91, 23), rgb(237, 237, 237));&quot;&gt;Карточка заказа&lt;br&gt;(просмотр)&lt;/font&gt;&lt;/h2&gt;" style="rounded=0;whiteSpace=wrap;html=1;fillColor=#fad7ac;strokeColor=#b46504;labelBorderColor=none;strokeWidth=3;" vertex="1" parent="1">
          <mxGeometry x="400" y="60" width="290" height="750" as="geometry" />
        </mxCell>
        <mxCell id="rYsyQF8CnUFIwroDZ9Fq-9" value="&lt;h2 style=&quot;padding-bottom: 650px;&quot;&gt;&lt;font style=&quot;color: light-dark(rgb(147, 57, 47), rgb(237, 237, 237));&quot;&gt;Карточка заказа (редактирование)&lt;/font&gt;&lt;/h2&gt;" style="rounded=0;whiteSpace=wrap;html=1;fillColor=#fad9d5;strokeColor=#ae4132;labelBorderColor=none;strokeWidth=3;" vertex="1" parent="1">
          <mxGeometry x="750" y="60" width="290" height="750" as="geometry" />
        </mxCell>
        <mxCell id="rYsyQF8CnUFIwroDZ9Fq-11" value="Переход к просмотру заказа" style="rounded=1;whiteSpace=wrap;html=1;" vertex="1" parent="1">
          <mxGeometry x="97.5" y="130" width="195" height="50" as="geometry" />
        </mxCell>
        <mxCell id="rYsyQF8CnUFIwroDZ9Fq-12" value="Переход к редактированию заказа" style="rounded=1;whiteSpace=wrap;html=1;" vertex="1" parent="1">
          <mxGeometry x="447.5" y="210" width="195" height="50" as="geometry" />
        </mxCell>
        <mxCell id="rYsyQF8CnUFIwroDZ9Fq-13" value="Переход к добавлению товаров в заказ" style="rounded=1;whiteSpace=wrap;html=1;" vertex="1" parent="1">
          <mxGeometry x="797.5" y="300" width="195" height="50" as="geometry" />
        </mxCell>
        <mxCell id="rYsyQF8CnUFIwroDZ9Fq-14" value="" style="endArrow=classic;html=1;rounded=0;exitX=0.5;exitY=1;exitDx=0;exitDy=0;entryX=0.5;entryY=0;entryDx=0;entryDy=0;edgeStyle=orthogonalEdgeStyle;" edge="1" parent="1" source="rYsyQF8CnUFIwroDZ9Fq-11" target="rYsyQF8CnUFIwroDZ9Fq-12">
          <mxGeometry width="50" height="50" relative="1" as="geometry">
            <mxPoint x="390" y="330" as="sourcePoint" />
            <mxPoint x="440" y="280" as="targetPoint" />
          </mxGeometry>
        </mxCell>
        <mxCell id="rYsyQF8CnUFIwroDZ9Fq-15" value="" style="endArrow=classic;html=1;rounded=0;exitX=0.5;exitY=1;exitDx=0;exitDy=0;entryX=0.5;entryY=0;entryDx=0;entryDy=0;edgeStyle=orthogonalEdgeStyle;" edge="1" parent="1" source="rYsyQF8CnUFIwroDZ9Fq-12" target="rYsyQF8CnUFIwroDZ9Fq-13">
          <mxGeometry width="50" height="50" relative="1" as="geometry">
            <mxPoint x="390" y="330" as="sourcePoint" />
            <mxPoint x="440" y="280" as="targetPoint" />
          </mxGeometry>
        </mxCell>
        <mxCell id="rYsyQF8CnUFIwroDZ9Fq-16" value="Выбор количества товара" style="rounded=1;whiteSpace=wrap;html=1;" vertex="1" parent="1">
          <mxGeometry x="797.5" y="540" width="195" height="50" as="geometry" />
        </mxCell>
        <mxCell id="rYsyQF8CnUFIwroDZ9Fq-36" value="&lt;h2 style=&quot;padding-bottom: 650px;&quot;&gt;&lt;font style=&quot;color: light-dark(rgb(62, 67, 71), rgb(237, 237, 237));&quot;&gt;Список товаров для добавления в заказ&lt;/font&gt;&lt;/h2&gt;" style="rounded=0;whiteSpace=wrap;html=1;fillColor=#bac8d3;strokeColor=#23445d;labelBorderColor=none;strokeWidth=3;" vertex="1" parent="1">
          <mxGeometry x="1100" y="60" width="290" height="750" as="geometry" />
        </mxCell>
        <mxCell id="rYsyQF8CnUFIwroDZ9Fq-37" value="Добавление товаров в заказ" style="rounded=1;whiteSpace=wrap;html=1;" vertex="1" parent="1">
          <mxGeometry x="1147.5" y="390" width="195" height="50" as="geometry" />
        </mxCell>
        <mxCell id="rYsyQF8CnUFIwroDZ9Fq-17" value="" style="endArrow=classic;html=1;rounded=0;entryX=0.5;entryY=0;entryDx=0;entryDy=0;exitX=0.5;exitY=1;exitDx=0;exitDy=0;edgeStyle=orthogonalEdgeStyle;" edge="1" parent="1" source="rYsyQF8CnUFIwroDZ9Fq-13" target="rYsyQF8CnUFIwroDZ9Fq-37">
          <mxGeometry width="50" height="50" relative="1" as="geometry">
            <mxPoint x="390" y="330" as="sourcePoint" />
            <mxPoint x="440" y="280" as="targetPoint" />
          </mxGeometry>
        </mxCell>
        <mxCell id="rYsyQF8CnUFIwroDZ9Fq-38" value="Переход к редактированию заказа" style="rounded=1;whiteSpace=wrap;html=1;" vertex="1" parent="1">
          <mxGeometry x="1147.5" y="460" width="195" height="50" as="geometry" />
        </mxCell>
        <mxCell id="rYsyQF8CnUFIwroDZ9Fq-39" value="" style="endArrow=classic;html=1;rounded=0;entryX=0.5;entryY=0;entryDx=0;entryDy=0;exitX=0.5;exitY=1;exitDx=0;exitDy=0;" edge="1" parent="1" source="rYsyQF8CnUFIwroDZ9Fq-37" target="rYsyQF8CnUFIwroDZ9Fq-38">
          <mxGeometry width="50" height="50" relative="1" as="geometry">
            <mxPoint x="670" y="340" as="sourcePoint" />
            <mxPoint x="720" y="290" as="targetPoint" />
          </mxGeometry>
        </mxCell>
        <mxCell id="rYsyQF8CnUFIwroDZ9Fq-40" value="" style="endArrow=classic;html=1;rounded=0;entryX=0.5;entryY=0;entryDx=0;entryDy=0;exitX=0.5;exitY=1;exitDx=0;exitDy=0;edgeStyle=orthogonalEdgeStyle;" edge="1" parent="1" source="rYsyQF8CnUFIwroDZ9Fq-38" target="rYsyQF8CnUFIwroDZ9Fq-16">
          <mxGeometry width="50" height="50" relative="1" as="geometry">
            <mxPoint x="670" y="340" as="sourcePoint" />
            <mxPoint x="720" y="290" as="targetPoint" />
          </mxGeometry>
        </mxCell>
        <mxCell id="rYsyQF8CnUFIwroDZ9Fq-41" value="Редактирование данных о доставке и клиенте" style="rounded=1;whiteSpace=wrap;html=1;" vertex="1" parent="1">
          <mxGeometry x="797.5" y="610" width="195" height="50" as="geometry" />
        </mxCell>
        <mxCell id="rYsyQF8CnUFIwroDZ9Fq-42" value="Сохранение заказа" style="rounded=1;whiteSpace=wrap;html=1;" vertex="1" parent="1">
          <mxGeometry x="797.5" y="680" width="195" height="50" as="geometry" />
        </mxCell>
        <mxCell id="rYsyQF8CnUFIwroDZ9Fq-43" value="" style="endArrow=classic;html=1;rounded=0;entryX=0.5;entryY=0;entryDx=0;entryDy=0;exitX=0.5;exitY=1;exitDx=0;exitDy=0;" edge="1" parent="1" source="rYsyQF8CnUFIwroDZ9Fq-16" target="rYsyQF8CnUFIwroDZ9Fq-41">
          <mxGeometry width="50" height="50" relative="1" as="geometry">
            <mxPoint x="670" y="450" as="sourcePoint" />
            <mxPoint x="720" y="400" as="targetPoint" />
          </mxGeometry>
        </mxCell>
        <mxCell id="rYsyQF8CnUFIwroDZ9Fq-46" value="Переход к списку всех заказов" style="rounded=1;whiteSpace=wrap;html=1;" vertex="1" parent="1">
          <mxGeometry x="797.5" y="750" width="195" height="50" as="geometry" />
        </mxCell>
        <mxCell id="rYsyQF8CnUFIwroDZ9Fq-48" value="" style="endArrow=classic;html=1;rounded=0;entryX=0.5;entryY=0;entryDx=0;entryDy=0;exitX=0.5;exitY=1;exitDx=0;exitDy=0;" edge="1" parent="1" source="rYsyQF8CnUFIwroDZ9Fq-42" target="rYsyQF8CnUFIwroDZ9Fq-46">
          <mxGeometry width="50" height="50" relative="1" as="geometry">
            <mxPoint x="670" y="450" as="sourcePoint" />
            <mxPoint x="720" y="400" as="targetPoint" />
          </mxGeometry>
        </mxCell>
        <mxCell id="rYsyQF8CnUFIwroDZ9Fq-49" value="" style="endArrow=classic;html=1;rounded=0;entryX=0.5;entryY=0;entryDx=0;entryDy=0;exitX=0.5;exitY=1;exitDx=0;exitDy=0;" edge="1" parent="1" source="rYsyQF8CnUFIwroDZ9Fq-41" target="rYsyQF8CnUFIwroDZ9Fq-42">
          <mxGeometry width="50" height="50" relative="1" as="geometry">
            <mxPoint x="670" y="450" as="sourcePoint" />
            <mxPoint x="720" y="400" as="targetPoint" />
          </mxGeometry>
        </mxCell>
      </root>
    </mxGraphModel>
  </diagram>
</mxfile>
